<svg xmlns="http://www.w3.org/2000/svg" viewBox="0 0 38 38"><defs><style>.cls-1{fill:#c69c6d;}.cls-2{fill:#754c24;}.cls-3{fill:none;stroke:#ed1c24;stroke-miterlimit:10;stroke-width:2px;}</style></defs><g id="_2x2" data-name="2x2"><g id="Basse_2x2" data-name="Basse 2x2"><rect class="cls-1" x="1" y="1" width="18" height="18"/><path class="cls-2" d="M18,2V18H2V2H18m2-2H0V20H20V0Z"/><rect class="cls-1" x="19" y="1" width="18" height="18"/><path class="cls-2" d="M36,2V18H20V2H36m2-2H18V20H38V0Z"/><rect class="cls-1" x="1" y="19" width="18" height="18"/><path class="cls-2" d="M18,20V36H2V20H18m2-2H0V38H20V18Z"/><rect class="cls-1" x="19" y="19" width="18" height="18"/><path class="cls-2" d="M36,20V36H20V20H36m2-2H18V38H38V18Z"/><rect class="cls-1" x="1" y="19" width="18" height="18"/><path class="cls-2" d="M18,20V36H2V20H18m2-2H0V38H20V18Z"/><rect class="cls-1" x="19" y="19" width="18" height="18"/><path class="cls-2" d="M36,20V36H20V20H36m2-2H18V38H38V18Z"/></g><line id="Conexion_Izquierda" data-name="Conexion Izquierda" class="cls-3" x1="1" y1="38" x2="1"/><line id="Conexion_Derecha" data-name="Conexion Derecha" class="cls-3" x1="37" y1="38" x2="37"/></g></svg>