<svg xmlns="http://www.w3.org/2000/svg" viewBox="0 0 109 110"><defs><style>.cls-1{fill:#c69c6d;}.cls-2{fill:#754c24;}.cls-3{fill:none;stroke:#ed1c24;stroke-miterlimit:10;stroke-width:2px;}</style></defs><g id="X"><g id="Base_X" data-name="Base X"><rect class="cls-1" x="36" width="18" height="18"/><path class="cls-2" d="M53,1V17H37V1H53m2-2H35V19H55V-1Z"/><rect class="cls-1" x="54" width="18" height="18"/><path class="cls-2" d="M71,1V17H55V1H71m2-2H53V19H73V-1Z"/><rect class="cls-1" x="36" y="18" width="18" height="18"/><path class="cls-2" d="M53,19V35H37V19H53m2-2H35V37H55V17Z"/><rect class="cls-1" x="54" y="18" width="18" height="18"/><path class="cls-2" d="M71,19V35H55V19H71m2-2H53V37H73V17Z"/><rect class="cls-1" y="36" width="18" height="18"/><path class="cls-2" d="M17,37V53H1V37H17m2-2H-1V55H19V35Z"/><rect class="cls-1" x="18" y="36" width="18" height="18"/><path class="cls-2" d="M35,37V53H19V37H35m2-2H17V55H37V35Z"/><rect class="cls-1" x="36" y="36" width="18" height="18"/><path class="cls-2" d="M53,37V53H37V37H53m2-2H35V55H55V35Z"/><rect class="cls-1" x="54" y="36" width="18" height="18"/><path class="cls-2" d="M71,37V53H55V37H71m2-2H53V55H73V35Z"/><rect class="cls-1" x="72" y="36" width="18" height="18"/><path class="cls-2" d="M89,37V53H73V37H89m2-2H71V55H91V35Z"/><rect class="cls-1" x="90" y="36" width="18" height="18"/><path class="cls-2" d="M107,37V53H91V37h16m2-2H89V55h20V35Z"/><rect class="cls-1" y="54" width="18" height="18"/><path class="cls-2" d="M17,55V71H1V55H17m2-2H-1V73H19V53Z"/><rect class="cls-1" x="18" y="54" width="18" height="18"/><path class="cls-2" d="M35,55V71H19V55H35m2-2H17V73H37V53Z"/><rect class="cls-1" x="36" y="54" width="18" height="18"/><path class="cls-2" d="M53,55V71H37V55H53m2-2H35V73H55V53Z"/><rect class="cls-1" x="54" y="54" width="18" height="18"/><path class="cls-2" d="M71,55V71H55V55H71m2-2H53V73H73V53Z"/><rect class="cls-1" x="72" y="54" width="18" height="18"/><path class="cls-2" d="M89,55V71H73V55H89m2-2H71V73H91V53Z"/><rect class="cls-1" x="90" y="54" width="18" height="18"/><path class="cls-2" d="M107,55V71H91V55h16m2-2H89V73h20V53Z"/><rect class="cls-1" x="36" y="18" width="18" height="18"/><path class="cls-2" d="M53,19V35H37V19H53m2-2H35V37H55V17Z"/><rect class="cls-1" x="54" y="18" width="18" height="18"/><path class="cls-2" d="M71,19V35H55V19H71m2-2H53V37H73V17Z"/><rect class="cls-1" y="36" width="18" height="18"/><path class="cls-2" d="M17,37V53H1V37H17m2-2H-1V55H19V35Z"/><rect class="cls-1" x="18" y="36" width="18" height="18"/><path class="cls-2" d="M35,37V53H19V37H35m2-2H17V55H37V35Z"/><rect class="cls-1" x="36" y="36" width="18" height="18"/><path class="cls-2" d="M53,37V53H37V37H53m2-2H35V55H55V35Z"/><rect class="cls-1" x="54" y="36" width="18" height="18"/><path class="cls-2" d="M71,37V53H55V37H71m2-2H53V55H73V35Z"/><rect class="cls-1" x="72" y="36" width="18" height="18"/><path class="cls-2" d="M89,37V53H73V37H89m2-2H71V55H91V35Z"/><rect class="cls-1" x="90" y="36" width="18" height="18"/><path class="cls-2" d="M107,37V53H91V37h16m2-2H89V55h20V35Z"/><rect class="cls-1" y="54" width="18" height="18"/><path class="cls-2" d="M17,55V71H1V55H17m2-2H-1V73H19V53Z"/><rect class="cls-1" x="18" y="54" width="18" height="18"/><path class="cls-2" d="M35,55V71H19V55H35m2-2H17V73H37V53Z"/><rect class="cls-1" x="36" y="54" width="18" height="18"/><path class="cls-2" d="M53,55V71H37V55H53m2-2H35V73H55V53Z"/><rect class="cls-1" x="54" y="54" width="18" height="18"/><path class="cls-2" d="M71,55V71H55V55H71m2-2H53V73H73V53Z"/><rect class="cls-1" x="72" y="54" width="18" height="18"/><path class="cls-2" d="M89,55V71H73V55H89m2-2H71V73H91V53Z"/><rect class="cls-1" x="90" y="54" width="18" height="18"/><path class="cls-2" d="M107,55V71H91V55h16m2-2H89V73h20V53Z"/><rect class="cls-1" x="36" y="72" width="18" height="18"/><path class="cls-2" d="M53,73V89H37V73H53m2-2H35V91H55V71Z"/><rect class="cls-1" x="54" y="72" width="18" height="18"/><path class="cls-2" d="M71,73V89H55V73H71m2-2H53V91H73V71Z"/><rect class="cls-1" y="36" width="18" height="18"/><path class="cls-2" d="M17,37V53H1V37H17m2-2H-1V55H19V35Z"/><rect class="cls-1" x="18" y="36" width="18" height="18"/><path class="cls-2" d="M35,37V53H19V37H35m2-2H17V55H37V35Z"/><rect class="cls-1" x="36" y="36" width="18" height="18"/><path class="cls-2" d="M53,37V53H37V37H53m2-2H35V55H55V35Z"/><rect class="cls-1" x="54" y="36" width="18" height="18"/><path class="cls-2" d="M71,37V53H55V37H71m2-2H53V55H73V35Z"/><rect class="cls-1" x="72" y="36" width="18" height="18"/><path class="cls-2" d="M89,37V53H73V37H89m2-2H71V55H91V35Z"/><rect class="cls-1" x="90" y="36" width="18" height="18"/><path class="cls-2" d="M107,37V53H91V37h16m2-2H89V55h20V35Z"/><rect class="cls-1" y="54" width="18" height="18"/><path class="cls-2" d="M17,55V71H1V55H17m2-2H-1V73H19V53Z"/><rect class="cls-1" x="18" y="54" width="18" height="18"/><path class="cls-2" d="M35,55V71H19V55H35m2-2H17V73H37V53Z"/><rect class="cls-1" x="36" y="54" width="18" height="18"/><path class="cls-2" d="M53,55V71H37V55H53m2-2H35V73H55V53Z"/><rect class="cls-1" x="54" y="54" width="18" height="18"/><path class="cls-2" d="M71,55V71H55V55H71m2-2H53V73H73V53Z"/><rect class="cls-1" x="72" y="54" width="18" height="18"/><path class="cls-2" d="M89,55V71H73V55H89m2-2H71V73H91V53Z"/><rect class="cls-1" x="90" y="54" width="18" height="18"/><path class="cls-2" d="M107,55V71H91V55h16m2-2H89V73h20V53Z"/><rect class="cls-1" x="36" y="72" width="18" height="18"/><path class="cls-2" d="M53,73V89H37V73H53m2-2H35V91H55V71Z"/><rect class="cls-1" x="54" y="72" width="18" height="18"/><path class="cls-2" d="M71,73V89H55V73H71m2-2H53V91H73V71Z"/><rect class="cls-1" x="36" y="90" width="18" height="18"/><path class="cls-2" d="M53,91v16H37V91H53m2-2H35v20H55V89Z"/><rect class="cls-1" x="54" y="90" width="18" height="18"/><path class="cls-2" d="M71,91v16H55V91H71m2-2H53v20H73V89Z"/></g><line id="Conexion_Inferior" data-name="Conexion Inferior" class="cls-3" x1="73" y1="108" x2="35" y2="108"/><line id="Conexion_Superior" data-name="Conexion Superior" class="cls-3" x1="73" x2="35"/><line id="Conexion_Izquierda" data-name="Conexion Izquierda" class="cls-3" y1="73" y2="35"/><line id="Conexion_Derecha" data-name="Conexion Derecha" class="cls-3" x1="108" y1="73" x2="108" y2="35"/></g></svg>