<svg id="_6x6" data-name="6x6" xmlns="http://www.w3.org/2000/svg" viewBox="0 0 110 110"><defs><style>.cls-1{fill:#c69c6d;}.cls-2{fill:#754c24;}.cls-3{fill:none;stroke:#ed1c24;stroke-miterlimit:10;stroke-width:2px;}</style></defs><g id="Base_6x6" data-name="Base 6x6"><rect class="cls-1" x="1" y="1" width="18" height="18"/><path class="cls-2" d="M18,2V18H2V2H18m2-2H0V20H20V0Z"/><rect class="cls-1" x="19" y="1" width="18" height="18"/><path class="cls-2" d="M36,2V18H20V2H36m2-2H18V20H38V0Z"/><rect class="cls-1" x="37" y="1" width="18" height="18"/><path class="cls-2" d="M54,2V18H38V2H54m2-2H36V20H56V0Z"/><rect class="cls-1" x="55" y="1" width="18" height="18"/><path class="cls-2" d="M72,2V18H56V2H72m2-2H54V20H74V0Z"/><rect class="cls-1" x="73" y="1" width="18" height="18"/><path class="cls-2" d="M90,2V18H74V2H90m2-2H72V20H92V0Z"/><rect class="cls-1" x="91" y="1" width="18" height="18"/><path class="cls-2" d="M108,2V18H92V2h16m2-2H90V20h20V0Z"/><rect class="cls-1" x="1" y="19" width="18" height="18"/><path class="cls-2" d="M18,20V36H2V20H18m2-2H0V38H20V18Z"/><rect class="cls-1" x="19" y="19" width="18" height="18"/><path class="cls-2" d="M36,20V36H20V20H36m2-2H18V38H38V18Z"/><rect class="cls-1" x="37" y="19" width="18" height="18"/><path class="cls-2" d="M54,20V36H38V20H54m2-2H36V38H56V18Z"/><rect class="cls-1" x="55" y="19" width="18" height="18"/><path class="cls-2" d="M72,20V36H56V20H72m2-2H54V38H74V18Z"/><rect class="cls-1" x="73" y="19" width="18" height="18"/><path class="cls-2" d="M90,20V36H74V20H90m2-2H72V38H92V18Z"/><rect class="cls-1" x="91" y="19" width="18" height="18"/><path class="cls-2" d="M108,20V36H92V20h16m2-2H90V38h20V18Z"/><rect class="cls-1" x="1" y="37" width="18" height="18"/><path class="cls-2" d="M18,38V54H2V38H18m2-2H0V56H20V36Z"/><rect class="cls-1" x="19" y="37" width="18" height="18"/><path class="cls-2" d="M36,38V54H20V38H36m2-2H18V56H38V36Z"/><rect class="cls-1" x="37" y="37" width="18" height="18"/><path class="cls-2" d="M54,38V54H38V38H54m2-2H36V56H56V36Z"/><rect class="cls-1" x="55" y="37" width="18" height="18"/><path class="cls-2" d="M72,38V54H56V38H72m2-2H54V56H74V36Z"/><rect class="cls-1" x="73" y="37" width="18" height="18"/><path class="cls-2" d="M90,38V54H74V38H90m2-2H72V56H92V36Z"/><rect class="cls-1" x="91" y="37" width="18" height="18"/><path class="cls-2" d="M108,38V54H92V38h16m2-2H90V56h20V36Z"/><rect class="cls-1" x="1" y="55" width="18" height="18"/><path class="cls-2" d="M18,56V72H2V56H18m2-2H0V74H20V54Z"/><rect class="cls-1" x="19" y="55" width="18" height="18"/><path class="cls-2" d="M36,56V72H20V56H36m2-2H18V74H38V54Z"/><rect class="cls-1" x="37" y="55" width="18" height="18"/><path class="cls-2" d="M54,56V72H38V56H54m2-2H36V74H56V54Z"/><rect class="cls-1" x="55" y="55" width="18" height="18"/><path class="cls-2" d="M72,56V72H56V56H72m2-2H54V74H74V54Z"/><rect class="cls-1" x="73" y="55" width="18" height="18"/><path class="cls-2" d="M90,56V72H74V56H90m2-2H72V74H92V54Z"/><rect class="cls-1" x="91" y="55" width="18" height="18"/><path class="cls-2" d="M108,56V72H92V56h16m2-2H90V74h20V54Z"/><rect class="cls-1" x="1" y="19" width="18" height="18"/><path class="cls-2" d="M18,20V36H2V20H18m2-2H0V38H20V18Z"/><rect class="cls-1" x="19" y="19" width="18" height="18"/><path class="cls-2" d="M36,20V36H20V20H36m2-2H18V38H38V18Z"/><rect class="cls-1" x="37" y="19" width="18" height="18"/><path class="cls-2" d="M54,20V36H38V20H54m2-2H36V38H56V18Z"/><rect class="cls-1" x="55" y="19" width="18" height="18"/><path class="cls-2" d="M72,20V36H56V20H72m2-2H54V38H74V18Z"/><rect class="cls-1" x="73" y="19" width="18" height="18"/><path class="cls-2" d="M90,20V36H74V20H90m2-2H72V38H92V18Z"/><rect class="cls-1" x="91" y="19" width="18" height="18"/><path class="cls-2" d="M108,20V36H92V20h16m2-2H90V38h20V18Z"/><rect class="cls-1" x="1" y="37" width="18" height="18"/><path class="cls-2" d="M18,38V54H2V38H18m2-2H0V56H20V36Z"/><rect class="cls-1" x="19" y="37" width="18" height="18"/><path class="cls-2" d="M36,38V54H20V38H36m2-2H18V56H38V36Z"/><rect class="cls-1" x="37" y="37" width="18" height="18"/><path class="cls-2" d="M54,38V54H38V38H54m2-2H36V56H56V36Z"/><rect class="cls-1" x="55" y="37" width="18" height="18"/><path class="cls-2" d="M72,38V54H56V38H72m2-2H54V56H74V36Z"/><rect class="cls-1" x="73" y="37" width="18" height="18"/><path class="cls-2" d="M90,38V54H74V38H90m2-2H72V56H92V36Z"/><rect class="cls-1" x="91" y="37" width="18" height="18"/><path class="cls-2" d="M108,38V54H92V38h16m2-2H90V56h20V36Z"/><rect class="cls-1" x="1" y="55" width="18" height="18"/><path class="cls-2" d="M18,56V72H2V56H18m2-2H0V74H20V54Z"/><rect class="cls-1" x="19" y="55" width="18" height="18"/><path class="cls-2" d="M36,56V72H20V56H36m2-2H18V74H38V54Z"/><rect class="cls-1" x="37" y="55" width="18" height="18"/><path class="cls-2" d="M54,56V72H38V56H54m2-2H36V74H56V54Z"/><rect class="cls-1" x="55" y="55" width="18" height="18"/><path class="cls-2" d="M72,56V72H56V56H72m2-2H54V74H74V54Z"/><rect class="cls-1" x="73" y="55" width="18" height="18"/><path class="cls-2" d="M90,56V72H74V56H90m2-2H72V74H92V54Z"/><rect class="cls-1" x="91" y="55" width="18" height="18"/><path class="cls-2" d="M108,56V72H92V56h16m2-2H90V74h20V54Z"/><rect class="cls-1" x="1" y="73" width="18" height="18"/><path class="cls-2" d="M18,74V90H2V74H18m2-2H0V92H20V72Z"/><rect class="cls-1" x="19" y="73" width="18" height="18"/><path class="cls-2" d="M36,74V90H20V74H36m2-2H18V92H38V72Z"/><rect class="cls-1" x="37" y="73" width="18" height="18"/><path class="cls-2" d="M54,74V90H38V74H54m2-2H36V92H56V72Z"/><rect class="cls-1" x="55" y="73" width="18" height="18"/><path class="cls-2" d="M72,74V90H56V74H72m2-2H54V92H74V72Z"/><rect class="cls-1" x="73" y="73" width="18" height="18"/><path class="cls-2" d="M90,74V90H74V74H90m2-2H72V92H92V72Z"/><rect class="cls-1" x="91" y="73" width="18" height="18"/><path class="cls-2" d="M108,74V90H92V74h16m2-2H90V92h20V72Z"/><rect class="cls-1" x="1" y="37" width="18" height="18"/><path class="cls-2" d="M18,38V54H2V38H18m2-2H0V56H20V36Z"/><rect class="cls-1" x="19" y="37" width="18" height="18"/><path class="cls-2" d="M36,38V54H20V38H36m2-2H18V56H38V36Z"/><rect class="cls-1" x="37" y="37" width="18" height="18"/><path class="cls-2" d="M54,38V54H38V38H54m2-2H36V56H56V36Z"/><rect class="cls-1" x="55" y="37" width="18" height="18"/><path class="cls-2" d="M72,38V54H56V38H72m2-2H54V56H74V36Z"/><rect class="cls-1" x="73" y="37" width="18" height="18"/><path class="cls-2" d="M90,38V54H74V38H90m2-2H72V56H92V36Z"/><rect class="cls-1" x="91" y="37" width="18" height="18"/><path class="cls-2" d="M108,38V54H92V38h16m2-2H90V56h20V36Z"/><rect class="cls-1" x="1" y="55" width="18" height="18"/><path class="cls-2" d="M18,56V72H2V56H18m2-2H0V74H20V54Z"/><rect class="cls-1" x="19" y="55" width="18" height="18"/><path class="cls-2" d="M36,56V72H20V56H36m2-2H18V74H38V54Z"/><rect class="cls-1" x="37" y="55" width="18" height="18"/><path class="cls-2" d="M54,56V72H38V56H54m2-2H36V74H56V54Z"/><rect class="cls-1" x="55" y="55" width="18" height="18"/><path class="cls-2" d="M72,56V72H56V56H72m2-2H54V74H74V54Z"/><rect class="cls-1" x="73" y="55" width="18" height="18"/><path class="cls-2" d="M90,56V72H74V56H90m2-2H72V74H92V54Z"/><rect class="cls-1" x="91" y="55" width="18" height="18"/><path class="cls-2" d="M108,56V72H92V56h16m2-2H90V74h20V54Z"/><rect class="cls-1" x="1" y="73" width="18" height="18"/><path class="cls-2" d="M18,74V90H2V74H18m2-2H0V92H20V72Z"/><rect class="cls-1" x="19" y="73" width="18" height="18"/><path class="cls-2" d="M36,74V90H20V74H36m2-2H18V92H38V72Z"/><rect class="cls-1" x="37" y="73" width="18" height="18"/><path class="cls-2" d="M54,74V90H38V74H54m2-2H36V92H56V72Z"/><rect class="cls-1" x="55" y="73" width="18" height="18"/><path class="cls-2" d="M72,74V90H56V74H72m2-2H54V92H74V72Z"/><rect class="cls-1" x="73" y="73" width="18" height="18"/><path class="cls-2" d="M90,74V90H74V74H90m2-2H72V92H92V72Z"/><rect class="cls-1" x="91" y="73" width="18" height="18"/><path class="cls-2" d="M108,74V90H92V74h16m2-2H90V92h20V72Z"/><rect class="cls-1" x="1" y="91" width="18" height="18"/><path class="cls-2" d="M18,92v16H2V92H18m2-2H0v20H20V90Z"/><rect class="cls-1" x="19" y="91" width="18" height="18"/><path class="cls-2" d="M36,92v16H20V92H36m2-2H18v20H38V90Z"/><rect class="cls-1" x="37" y="91" width="18" height="18"/><path class="cls-2" d="M54,92v16H38V92H54m2-2H36v20H56V90Z"/><rect class="cls-1" x="55" y="91" width="18" height="18"/><path class="cls-2" d="M72,92v16H56V92H72m2-2H54v20H74V90Z"/><rect class="cls-1" x="73" y="91" width="18" height="18"/><path class="cls-2" d="M90,92v16H74V92H90m2-2H72v20H92V90Z"/><rect class="cls-1" x="91" y="91" width="18" height="18"/><path class="cls-2" d="M108,92v16H92V92h16m2-2H90v20h20V90Z"/></g><line id="Conexion_Izquierda" data-name="Conexion Izquierda" class="cls-3" x1="1" y1="36" x2="1" y2="74"/><line id="Conexion_Derecha" data-name="Conexion Derecha" class="cls-3" x1="109" y1="36" x2="109" y2="74"/><line id="Conexion_Superior" data-name="Conexion Superior" class="cls-3" x1="74" y1="1" x2="36" y2="1"/><line id="Conexion_Inferior" data-name="Conexion Inferior" class="cls-3" x1="74" y1="109" x2="36" y2="109"/></svg>