<svg xmlns="http://www.w3.org/2000/svg" viewBox="0 0 74 38"><defs><style>.cls-1{fill:#c69c6d;}.cls-2{fill:#754c24;}.cls-3{fill:none;stroke:#ed1c24;stroke-miterlimit:10;stroke-width:2px;}</style></defs><g id="_4x2" data-name="4x2"><g id="Base_4x2" data-name="Base 4x2"><rect class="cls-1" x="1" y="1" width="18" height="18"/><path class="cls-2" d="M18,2V18H2V2H18m2-2H0V20H20V0Z"/><rect class="cls-1" x="19" y="1" width="18" height="18"/><path class="cls-2" d="M36,2V18H20V2H36m2-2H18V20H38V0Z"/><rect class="cls-1" x="37" y="1" width="18" height="18"/><path class="cls-2" d="M54,2V18H38V2H54m2-2H36V20H56V0Z"/><rect class="cls-1" x="55" y="1" width="18" height="18"/><path class="cls-2" d="M72,2V18H56V2H72m2-2H54V20H74V0Z"/><rect class="cls-1" x="1" y="19" width="18" height="18"/><path class="cls-2" d="M18,20V36H2V20H18m2-2H0V38H20V18Z"/><rect class="cls-1" x="19" y="19" width="18" height="18"/><path class="cls-2" d="M36,20V36H20V20H36m2-2H18V38H38V18Z"/><rect class="cls-1" x="37" y="19" width="18" height="18"/><path class="cls-2" d="M54,20V36H38V20H54m2-2H36V38H56V18Z"/><rect class="cls-1" x="55" y="19" width="18" height="18"/><path class="cls-2" d="M72,20V36H56V20H72m2-2H54V38H74V18Z"/><rect class="cls-1" x="1" y="19" width="18" height="18"/><path class="cls-2" d="M18,20V36H2V20H18m2-2H0V38H20V18Z"/><rect class="cls-1" x="19" y="19" width="18" height="18"/><path class="cls-2" d="M36,20V36H20V20H36m2-2H18V38H38V18Z"/><rect class="cls-1" x="37" y="19" width="18" height="18"/><path class="cls-2" d="M54,20V36H38V20H54m2-2H36V38H56V18Z"/><rect class="cls-1" x="55" y="19" width="18" height="18"/><path class="cls-2" d="M72,20V36H56V20H72m2-2H54V38H74V18Z"/></g><line id="Conexion_Izquierda" data-name="Conexion Izquierda" class="cls-3" x1="1" y1="38" x2="1"/><line id="Conexion_Derecha" data-name="Conexion Derecha" class="cls-3" x1="73" y1="38" x2="73"/></g></svg>