<?xml version="1.0" encoding="utf-8"?>
<!-- Generator: Adobe Illustrator 19.0.0, SVG Export Plug-In . SVG Version: 6.00 Build 0)  -->
<svg version="1.1" id="Capa_1" xmlns="http://www.w3.org/2000/svg" xmlns:xlink="http://www.w3.org/1999/xlink" x="0px" y="0px"
	 viewBox="-66 212 236 361" style="enable-background:new -66 212 236 361;" xml:space="preserve">
<style type="text/css">
	.st0{fill:#FFFFFF;}
</style>
<g id="XMLID_239_">
	<path id="XMLID_245_" class="st0" d="M149.9,263c-17.1,3.9-79.2,21.3-97,70.9c-0.8-0.2-1.6-0.3-2.5-0.3c-0.8,0-1.6,0.1-2.3,0.3
		c-17.8-49.4-79.9-66.9-97-70.8c22-13.9,20.7-30.4,20.6-31.2c-0.1-1-0.9-1.6-1.9-1.5c-0.9,0.1-1.6,0.9-1.5,1.8
		c0.1,0.7,1.2,17-22.7,30.1c-0.5,0.3-0.9,0.9-0.9,1.5c0,0.1,0,0.2,0,0.3c0.1,0.7,0.7,1.3,1.4,1.4c0.8,0.1,78.9,14.2,98.8,69.7
		c-2.8,1.8-4.7,4.9-4.7,8.5c0,4.9,3.5,9,8.2,9.9c-1.5,5.3-8.9,29-23.5,31.9c-6.7,1.3-10.8-1.1-13.1-3.5c0-3.6,1-3.7,3.2-4
		c2-0.3,4.9-0.7,6.1-4.5c1.1-3.6-0.1-7-3.1-8.9c-3.4-2.1-7.9-1.7-10.9,1.1c-1.6,1.5-2.5,4-2.5,6.9c0,2.5,0.6,5.2,1.9,7.8
		c3.5,6.9,10.6,10.1,19,8.5c11.9-2.3,19.2-15.7,23.1-25.3v43.6c-2.6,0.7-4.5,3.1-4.5,6s1.9,5.2,4.5,6v3.2
		c-6.7,6.9-17.7,6.5-17.8,6.5c-0.6,0-1.3,0.3-1.6,0.9c-0.1,0.2-0.2,0.5-0.2,0.8c0,0.4,0.1,0.7,0.4,1c17,21.8,0.8,38.9,0.1,39.6
		c-0.5,0.5-0.6,1.4-0.2,2c0.4,0.7,1.2,1,1.9,0.8c18-4.9,18.7-22.2,18.5-27.7c0-1-0.1-1.6-0.1-1.7c-0.1-0.7-0.6-1.3-1.3-1.4
		c-0.3-0.1-3.2-1-3.2-4.7c0-4.4,4.3-5.4,5.3-5.4c0.1,0,6.2,0.2,6.2,5.3c0,4.3-2.9,5.6-3,5.7c-0.6,0.3-1,0.9-1,1.5c0,0.2,0,0.4,0,0.5
		c0,24.6,19.5,27.1,19.7,27.1c0.7,0.1,1.4-0.3,1.7-1c0.3-0.7,0.1-1.5-0.4-2c-17.2-15-2.6-38.4-2.4-38.7c0.3-0.5,0.3-1.2,0.1-1.7
		c-0.3-0.5-0.9-0.9-1.5-0.9c-9.9-0.2-16-5.3-17.6-6.8v-3.2c2.6-0.8,4.5-3.1,4.5-6s-1.9-5.2-4.5-6v-43.4c3.8,9.7,11.2,23.1,23.1,25.3
		c8.4,1.6,15.6-1.6,19-8.5c2.7-5.4,2.5-11.8-0.5-14.6c-3-2.8-7.5-3.2-10.9-1.1c-3,1.9-4.2,5.3-3.1,8.9c1.2,3.8,4.1,4.2,6.1,4.5
		c2.2,0.3,3.1,0.4,3.2,4c-2.4,2.5-6.4,4.8-13.1,3.5c-14.6-2.8-22-26.5-23.5-31.9c4.7-0.9,8.2-5,8.2-9.9c0-3.5-1.8-6.6-4.5-8.4
		c19.8-55.6,98-69.6,98.8-69.8c0.7-0.1,1.3-0.7,1.4-1.4c0.1-0.7-0.2-1.4-0.9-1.8c-24-13.2-22.9-29.5-22.8-30.2
		c0.1-0.9-0.6-1.8-1.6-1.8c-0.9-0.1-1.7,0.6-1.8,1.5C129.2,232.5,127.9,249.1,149.9,263z M50.4,336.9c3.7,0,6.7,3,6.7,6.7
		c0,3.7-3,6.7-6.7,6.7s-6.7-3-6.7-6.7C43.6,339.9,46.6,336.9,50.4,336.9z"/>
	<path id="XMLID_244_" class="st0" d="M50.4,249c-4.4,0-7.9-3.6-7.9-8c0-4.4,3.5-7.9,7.9-7.9s7.9,3.5,7.9,7.9
		C58.3,245.4,54.8,249,50.4,249z"/>
	<path id="XMLID_243_" class="st0" d="M50.4,253.1c0.9,0.1,1.6,0.8,1.6,1.7c0,0.6,0,1.2,0,1.7c0,4.7,1.3,18.9,14.3,27.3
		c0.5,0.4,0.8,1,0.7,1.6c-0.1,0.6-0.5,1.2-1.1,1.4c-0.1,0-9,3.6-14.1,18.7c-0.2,0.7-0.9,1.1-1.6,1.2c-0.7,0-1.3-0.4-1.6-1
		c-2-4.7-8.7-17.2-15.4-18.9c-0.6-0.1-1.1-0.7-1.3-1.3c0-0.1,0-0.2,0-0.3c0-0.5,0.2-1,0.6-1.4c0.2-0.1,14.8-11.3,15.9-27.1
		c0.1-1.1,0.1-1.9,0.1-2C48.8,253.8,49.5,253.1,50.4,253.1z"/>
	<path id="XMLID_242_" class="st0" d="M41,257c-12.2,0-18.6,18-18.7,18.2c-0.2,0.6-0.7,1-1.3,1.1s-1.2-0.1-1.6-0.6
		C3.9,257.9-19.3,257-19.6,257c-0.9,0-1.6-0.8-1.6-1.7l0,0c0-0.9,0.8-1.7,1.7-1.7h60.4c1,0,1.7,0.7,1.7,1.7
		C42.7,256.2,41.9,257,41,257z"/>
	<path id="XMLID_241_" class="st0" d="M58.7,257.5c-0.9,0-1.6-0.8-1.6-1.7c0,0,0,0,0-0.1c0-0.9,0.8-1.6,1.7-1.6h63.3
		c0.9,0,1.7,0.7,1.7,1.6s-0.6,1.7-1.5,1.8c-0.3,0-26.5,2.4-42,19.3c-0.4,0.4-1.1,0.6-1.6,0.5c-0.6-0.1-1.1-0.6-1.3-1.2
		C77.3,276,71.7,258.3,58.7,257.5z"/>
	<path id="XMLID_240_" class="st0" d="M50.4,553.8c-1,0-1.7-0.8-1.7-1.7V490c-2.6-0.7-4.5-3.1-4.5-6c0-3.5,2.8-6.3,6.2-6.3
		c3.4,0,6.2,2.8,6.2,6.3c0,2.8-1.9,5.2-4.5,6v62.1C52.1,553,51.3,553.8,50.4,553.8z"/>
</g>
</svg>
