<?xml version="1.0" encoding="utf-8"?>
<!-- Generator: Adobe Illustrator 19.0.0, SVG Export Plug-In . SVG Version: 6.00 Build 0)  -->
<svg version="1.1" id="Capa_1" xmlns="http://www.w3.org/2000/svg" xmlns:xlink="http://www.w3.org/1999/xlink" x="0px" y="0px"
	 viewBox="-118 299.9 358.5 243" style="enable-background:new -118 299.9 358.5 243;" xml:space="preserve">
<style type="text/css">
	.st0{fill:#FFFFFF;}
</style>
<g id="XMLID_239_">
	<path id="XMLID_245_" class="st0" d="M-70.5,317.6c3.9,17.1,21.3,79.2,70.9,97c-0.2,0.8-0.3,1.6-0.3,2.5c0,0.8,0.1,1.6,0.3,2.3
		c-49.4,17.8-66.9,79.9-70.8,97c-13.9-22-30.4-20.7-31.2-20.6c-1,0.1-1.6,0.9-1.5,1.9c0.1,0.9,0.9,1.6,1.8,1.5
		c0.7-0.1,17-1.2,30.1,22.7c0.3,0.5,0.9,0.9,1.5,0.9c0.1,0,0.2,0,0.3,0c0.7-0.1,1.3-0.7,1.4-1.4c0.1-0.8,14.2-78.9,69.7-98.8
		c1.8,2.8,4.9,4.7,8.5,4.7c4.9,0,9-3.5,9.9-8.2c5.3,1.5,29,8.9,31.9,23.5c1.3,6.7-1.1,10.8-3.5,13.1c-3.6,0-3.7-1-4-3.2
		c-0.3-2-0.7-4.9-4.5-6.1c-3.6-1.1-7,0.1-8.9,3.1c-2.1,3.4-1.7,7.9,1.1,10.9c1.5,1.6,4,2.5,6.9,2.5c2.5,0,5.2-0.6,7.8-1.9
		c6.9-3.5,10.1-10.6,8.5-19c-2.3-11.9-15.7-19.2-25.3-23.1h43.6c0.7,2.6,3.1,4.5,6,4.5s5.2-1.9,6-4.5h3.2c6.9,6.7,6.5,17.7,6.5,17.8
		c0,0.6,0.3,1.3,0.9,1.6c0.2,0.1,0.5,0.2,0.8,0.2c0.4,0,0.7-0.1,1-0.4c21.8-17,38.9-0.8,39.6-0.1c0.5,0.5,1.4,0.6,2,0.2
		c0.7-0.4,1-1.2,0.8-1.9c-4.9-18-22.2-18.7-27.7-18.5c-1,0-1.6,0.1-1.7,0.1c-0.7,0.1-1.3,0.6-1.4,1.3c-0.1,0.3-1,3.2-4.7,3.2
		c-4.4,0-5.4-4.3-5.4-5.3c0-0.1,0.2-6.2,5.3-6.2c4.3,0,5.6,2.9,5.7,3c0.3,0.6,0.9,1,1.5,1c0.2,0,0.4,0,0.5,0
		c24.6,0,27.1-19.5,27.1-19.7c0.1-0.7-0.3-1.4-1-1.7c-0.7-0.3-1.5-0.1-2,0.4c-15,17.2-38.4,2.6-38.7,2.4c-0.5-0.3-1.2-0.3-1.7-0.1
		c-0.5,0.3-0.9,0.9-0.9,1.5c-0.2,9.9-5.3,16-6.8,17.6h-3.2c-0.8-2.6-3.1-4.5-6-4.5s-5.2,1.9-6,4.5H30c9.7-3.8,23.1-11.2,25.3-23.1
		c1.6-8.4-1.6-15.6-8.5-19c-5.4-2.7-11.8-2.5-14.6,0.5s-3.2,7.5-1.1,10.9c1.9,3,5.3,4.2,8.9,3.1c3.8-1.2,4.2-4.1,4.5-6.1
		c0.3-2.2,0.4-3.1,4-3.2c2.5,2.4,4.8,6.4,3.5,13.1c-2.8,14.6-26.5,22-31.9,23.5c-0.9-4.7-5-8.2-9.9-8.2c-3.5,0-6.6,1.8-8.4,4.5
		c-55.6-19.8-69.6-98-69.8-98.8c-0.1-0.7-0.7-1.3-1.4-1.4s-1.4,0.2-1.8,0.9c-13.2,24-29.5,22.9-30.2,22.8c-0.9-0.1-1.8,0.6-1.8,1.6
		c-0.1,0.9,0.6,1.7,1.5,1.8C-101,338.3-84.4,339.6-70.5,317.6z M3.4,417.1c0-3.7,3-6.7,6.7-6.7c3.7,0,6.7,3,6.7,6.7
		c0,3.7-3,6.7-6.7,6.7C6.4,423.9,3.4,420.9,3.4,417.1z"/>
	<path id="XMLID_244_" class="st0" d="M-84.5,417.1c0,4.4-3.6,7.9-8,7.9s-7.9-3.5-7.9-7.9s3.5-7.9,7.9-7.9S-84.5,412.7-84.5,417.1z"
		/>
	<path id="XMLID_243_" class="st0" d="M-80.4,417.1c0.1-0.9,0.8-1.6,1.7-1.6c0.6,0,1.2,0,1.7,0c4.7,0,18.9-1.3,27.3-14.3
		c0.4-0.5,1-0.8,1.6-0.7s1.2,0.5,1.4,1.1c0,0.1,3.6,9,18.7,14.1c0.7,0.2,1.1,0.9,1.2,1.6c0,0.7-0.4,1.3-1,1.6
		c-4.7,2-17.2,8.7-18.9,15.4c-0.1,0.6-0.7,1.1-1.3,1.3c-0.1,0-0.2,0-0.3,0c-0.5,0-1-0.2-1.4-0.6c-0.1-0.2-11.3-14.8-27.1-15.9
		c-1.1-0.1-1.9-0.1-2-0.1C-79.7,418.7-80.4,418-80.4,417.1z"/>
	<path id="XMLID_242_" class="st0" d="M-76.5,426.5c0,12.2,18,18.6,18.2,18.7c0.6,0.2,1,0.7,1.1,1.3s-0.1,1.2-0.6,1.6
		c-17.8,15.5-18.7,38.7-18.7,39c0,0.9-0.8,1.6-1.7,1.6l0,0c-0.9,0-1.7-0.8-1.7-1.7v-60.4c0-1,0.7-1.7,1.7-1.7
		C-77.3,424.8-76.5,425.6-76.5,426.5z"/>
	<path id="XMLID_241_" class="st0" d="M-76,408.8c0,0.9-0.8,1.6-1.7,1.6c0,0,0,0-0.1,0c-0.9,0-1.6-0.8-1.6-1.7v-63.3
		c0-0.9,0.7-1.7,1.6-1.7c0.9,0,1.7,0.6,1.8,1.5c0,0.3,2.4,26.5,19.3,42c0.4,0.4,0.6,1.1,0.5,1.6c-0.1,0.6-0.6,1.1-1.2,1.3
		C-57.5,390.2-75.2,395.8-76,408.8z"/>
	<path id="XMLID_240_" class="st0" d="M220.3,417.1c0,1-0.8,1.7-1.7,1.7h-62.1c-0.7,2.6-3.1,4.5-6,4.5c-3.5,0-6.3-2.8-6.3-6.2
		s2.8-6.2,6.3-6.2c2.8,0,5.2,1.9,6,4.5h62.1C219.5,415.4,220.3,416.2,220.3,417.1z"/>
</g>
</svg>
