<?xml version="1.0" encoding="utf-8"?>
<!-- Generator: Adobe Illustrator 19.0.0, SVG Export Plug-In . SVG Version: 6.00 Build 0)  -->
<svg version="1.1" id="Capa_1" xmlns="http://www.w3.org/2000/svg" xmlns:xlink="http://www.w3.org/1999/xlink" x="0px" y="0px"
	 viewBox="-176.4 234.7 211.7 323.5" style="enable-background:new -176.4 234.7 211.7 323.5;" xml:space="preserve">
<g id="XMLID_239_">
	<path id="XMLID_245_" d="M-169.8,525.5c17.1-3.9,79.2-21.3,97-70.9c0.8,0.2,1.6,0.3,2.5,0.3c0.8,0,1.6-0.1,2.3-0.3
		c17.8,49.4,79.9,66.9,97,70.8C7,539.3,8.3,555.8,8.4,556.6c0.1,1,0.9,1.6,1.9,1.5c0.9-0.1,1.6-0.9,1.5-1.8
		c-0.1-0.7-1.2-17,22.7-30.1c0.5-0.3,0.9-0.9,0.9-1.5c0-0.1,0-0.2,0-0.3c-0.1-0.7-0.7-1.3-1.4-1.4c-0.8-0.1-78.9-14.2-98.8-69.7
		c2.8-1.8,4.7-4.9,4.7-8.5c0-4.9-3.5-9-8.2-9.9c1.5-5.3,8.9-29,23.5-31.9c6.7-1.3,10.8,1.1,13.1,3.5c0,3.6-1,3.7-3.2,4
		c-2,0.3-4.9,0.7-6.1,4.5c-1.1,3.6,0.1,7,3.1,8.9c3.4,2.1,7.9,1.7,10.9-1.1c1.6-1.5,2.5-4,2.5-6.9c0-2.5-0.6-5.2-1.9-7.8
		c-3.5-6.9-10.6-10.1-19-8.5c-11.9,2.3-19.2,15.7-23.1,25.3v-43.6c2.6-0.7,4.5-3.1,4.5-6s-1.9-5.2-4.5-6v-3.2
		c6.7-6.9,17.7-6.5,17.8-6.5c0.6,0,1.3-0.3,1.6-0.9c0.1-0.2,0.2-0.5,0.2-0.8c0-0.4-0.1-0.7-0.4-1c-17-21.8-0.8-38.9-0.1-39.6
		c0.5-0.5,0.6-1.4,0.2-2c-0.4-0.7-1.2-1-1.9-0.8c-18,4.9-18.7,22.2-18.5,27.7c0,1,0.1,1.6,0.1,1.7c0.1,0.7,0.6,1.3,1.3,1.4
		c0.3,0.1,3.2,1,3.2,4.7c0,4.4-4.3,5.4-5.3,5.4c-0.1,0-6.2-0.2-6.2-5.3c0-4.3,2.9-5.6,3-5.7c0.6-0.3,1-0.9,1-1.5c0-0.2,0-0.4,0-0.5
		c0-24.6-19.5-27.1-19.7-27.1c-0.7-0.1-1.4,0.3-1.7,1c-0.3,0.7-0.1,1.5,0.4,2c17.2,15,2.6,38.4,2.4,38.7c-0.3,0.5-0.3,1.2-0.1,1.7
		c0.3,0.5,0.9,0.9,1.5,0.9c9.9,0.2,16,5.3,17.6,6.8v3.2c-2.6,0.8-4.5,3.1-4.5,6s1.9,5.2,4.5,6V425c-3.8-9.7-11.2-23.1-23.1-25.3
		c-8.4-1.6-15.6,1.6-19,8.5c-2.7,5.4-2.5,11.8,0.5,14.6c3,2.8,7.5,3.2,10.9,1.1c3-1.9,4.2-5.3,3.1-8.9c-1.2-3.8-4.1-4.2-6.1-4.5
		c-2.2-0.3-3.1-0.4-3.2-4c2.4-2.5,6.4-4.8,13.1-3.5c14.6,2.8,22,26.5,23.5,31.9c-4.7,0.9-8.2,5-8.2,9.9c0,3.5,1.8,6.6,4.5,8.4
		c-19.8,55.6-98,69.6-98.8,69.8c-0.7,0.1-1.3,0.7-1.4,1.4s0.2,1.4,0.9,1.8c24,13.2,22.9,29.5,22.8,30.2c-0.1,0.9,0.6,1.8,1.6,1.8
		c0.9,0.1,1.7-0.6,1.8-1.5C-149.1,556-147.8,539.4-169.8,525.5z M-70.3,451.6c-3.7,0-6.7-3-6.7-6.7s3-6.7,6.7-6.7
		c3.7,0,6.7,3,6.7,6.7C-63.5,448.6-66.5,451.6-70.3,451.6z"/>
	<path id="XMLID_244_" d="M-70.3,539.5c4.4,0,7.9,3.6,7.9,8s-3.5,7.9-7.9,7.9s-7.9-3.5-7.9-7.9C-78.2,543.1-74.7,539.5-70.3,539.5z"
		/>
	<path id="XMLID_243_" d="M-70.3,535.4c-0.9-0.1-1.6-0.8-1.6-1.7c0-0.6,0-1.2,0-1.7c0-4.7-1.3-18.9-14.3-27.3
		c-0.5-0.4-0.8-1-0.7-1.6s0.5-1.2,1.1-1.4c0.1,0,9-3.6,14.1-18.7c0.2-0.7,0.9-1.1,1.6-1.2c0.7,0,1.3,0.4,1.6,1
		c2,4.7,8.7,17.2,15.4,18.9c0.6,0.1,1.1,0.7,1.3,1.3c0,0.1,0,0.2,0,0.3c0,0.5-0.2,1-0.6,1.4c-0.2,0.1-14.8,11.3-15.9,27.1
		c-0.1,1.1-0.1,1.9-0.1,2C-68.7,534.7-69.4,535.4-70.3,535.4z"/>
	<path id="XMLID_242_" d="M-60.9,531.5c12.2,0,18.6-18,18.7-18.2c0.2-0.6,0.7-1,1.3-1.1c0.6-0.1,1.2,0.1,1.6,0.6
		c15.5,17.8,38.7,18.7,39,18.7c0.9,0,1.6,0.8,1.6,1.7l0,0c0,0.9-0.8,1.7-1.7,1.7h-60.4c-1,0-1.7-0.7-1.7-1.7
		C-62.6,532.3-61.8,531.5-60.9,531.5z"/>
	<path id="XMLID_241_" d="M-78.6,531c0.9,0,1.6,0.8,1.6,1.7c0,0,0,0,0,0.1c0,0.9-0.8,1.6-1.7,1.6H-142c-0.9,0-1.7-0.7-1.7-1.6
		c0-0.9,0.6-1.7,1.5-1.8c0.3,0,26.5-2.4,42-19.3c0.4-0.4,1.1-0.6,1.6-0.5c0.6,0.1,1.1,0.6,1.3,1.2C-97.2,512.5-91.6,530.2-78.6,531z
		"/>
	<path id="XMLID_240_" d="M-70.3,234.7c1,0,1.7,0.8,1.7,1.7v62.1c2.6,0.7,4.5,3.1,4.5,6c0,3.5-2.8,6.3-6.2,6.3s-6.2-2.8-6.2-6.3
		c0-2.8,1.9-5.2,4.5-6v-62.1C-72,235.5-71.2,234.7-70.3,234.7z"/>
</g>
</svg>
