<?xml version="1.0" encoding="utf-8"?>
<!-- Generator: Adobe Illustrator 19.0.0, SVG Export Plug-In . SVG Version: 6.00 Build 0)  -->
<svg version="1.1" id="Capa_1" xmlns="http://www.w3.org/2000/svg" xmlns:xlink="http://www.w3.org/1999/xlink" x="0px" y="0px"
	 viewBox="0 0 358.5 243" style="enable-background:new 0 0 358.5 243;" xml:space="preserve">
<g id="XMLID_239_">
	<path id="XMLID_245_" d="M47.5,17.7c3.9,17.1,21.3,79.2,70.9,97c-0.2,0.8-0.3,1.6-0.3,2.5c0,0.8,0.1,1.6,0.3,2.3
		c-49.4,17.8-66.9,79.9-70.8,97c-13.9-22-30.4-20.7-31.2-20.6c-1,0.1-1.6,0.9-1.5,1.9c0.1,0.9,0.9,1.6,1.8,1.5
		c0.7-0.1,17-1.2,30.1,22.7c0.3,0.5,0.9,0.9,1.5,0.9c0.1,0,0.2,0,0.3,0c0.7-0.1,1.3-0.7,1.4-1.4c0.1-0.8,14.2-78.9,69.7-98.8
		c1.8,2.8,4.9,4.7,8.5,4.7c4.9,0,9-3.5,9.9-8.2c5.3,1.5,29,8.9,31.9,23.5c1.3,6.7-1.1,10.8-3.5,13.1c-3.6,0-3.7-1-4-3.2
		c-0.3-2-0.7-4.9-4.5-6.1c-3.6-1.1-7,0.1-8.9,3.1c-2.1,3.4-1.7,7.9,1.1,10.9c1.5,1.6,4,2.5,6.9,2.5c2.5,0,5.2-0.6,7.8-1.9
		c6.9-3.5,10.1-10.6,8.5-19c-2.3-11.9-15.7-19.2-25.3-23.1h43.6c0.7,2.6,3.1,4.5,6,4.5c2.9,0,5.2-1.9,6-4.5h3.2
		c6.9,6.7,6.5,17.7,6.5,17.8c0,0.6,0.3,1.3,0.9,1.6c0.2,0.1,0.5,0.2,0.8,0.2c0.4,0,0.7-0.1,1-0.4c21.8-17,38.9-0.8,39.6-0.1
		c0.5,0.5,1.4,0.6,2,0.2c0.7-0.4,1-1.2,0.8-1.9c-4.9-18-22.2-18.7-27.7-18.5c-1,0-1.6,0.1-1.7,0.1c-0.7,0.1-1.3,0.6-1.4,1.3
		c-0.1,0.3-1,3.2-4.7,3.2c-4.4,0-5.4-4.3-5.4-5.3c0-0.1,0.2-6.2,5.3-6.2c4.3,0,5.6,2.9,5.7,3c0.3,0.6,0.9,1,1.5,1c0.2,0,0.4,0,0.5,0
		c24.6,0,27.1-19.5,27.1-19.7c0.1-0.7-0.3-1.4-1-1.7c-0.7-0.3-1.5-0.1-2,0.4c-15,17.2-38.4,2.6-38.7,2.4c-0.5-0.3-1.2-0.3-1.7-0.1
		c-0.5,0.3-0.9,0.9-0.9,1.5c-0.2,9.9-5.3,16-6.8,17.6h-3.2c-0.8-2.6-3.1-4.5-6-4.5c-2.9,0-5.2,1.9-6,4.5H148
		c9.7-3.8,23.1-11.2,25.3-23.1c1.6-8.4-1.6-15.6-8.5-19c-5.4-2.7-11.8-2.5-14.6,0.5c-2.8,3-3.2,7.5-1.1,10.9c1.9,3,5.3,4.2,8.9,3.1
		c3.8-1.2,4.2-4.1,4.5-6.1c0.3-2.2,0.4-3.1,4-3.2c2.5,2.4,4.8,6.4,3.5,13.1c-2.8,14.6-26.5,22-31.9,23.5c-0.9-4.7-5-8.2-9.9-8.2
		c-3.5,0-6.6,1.8-8.4,4.5c-55.6-19.8-69.6-98-69.8-98.8c-0.1-0.7-0.7-1.3-1.4-1.4c-0.7-0.1-1.4,0.2-1.8,0.9
		C33.6,36.1,17.3,35,16.6,34.9c-0.9-0.1-1.8,0.6-1.8,1.6c-0.1,0.9,0.6,1.7,1.5,1.8C17,38.4,33.6,39.7,47.5,17.7z M121.4,117.2
		c0-3.7,3-6.7,6.7-6.7c3.7,0,6.7,3,6.7,6.7c0,3.7-3,6.7-6.7,6.7C124.4,124,121.4,121,121.4,117.2z"/>
	<path id="XMLID_244_" d="M33.5,117.2c0,4.4-3.6,7.9-8,7.9c-4.4,0-7.9-3.5-7.9-7.9c0-4.4,3.5-7.9,7.9-7.9
		C29.9,109.3,33.5,112.8,33.5,117.2z"/>
	<path id="XMLID_243_" d="M37.6,117.2c0.1-0.9,0.8-1.6,1.7-1.6c0.6,0,1.2,0,1.7,0c4.7,0,18.9-1.3,27.3-14.3c0.4-0.5,1-0.8,1.6-0.7
		c0.6,0.1,1.2,0.5,1.4,1.1c0,0.1,3.6,9,18.7,14.1c0.7,0.2,1.1,0.9,1.2,1.6c0,0.7-0.4,1.3-1,1.6c-4.7,2-17.2,8.7-18.9,15.4
		c-0.1,0.6-0.7,1.1-1.3,1.3c-0.1,0-0.2,0-0.3,0c-0.5,0-1-0.2-1.4-0.6c-0.1-0.2-11.3-14.8-27.1-15.9c-1.1-0.1-1.9-0.1-2-0.1
		C38.3,118.8,37.6,118.1,37.6,117.2z"/>
	<path id="XMLID_242_" d="M41.5,126.6c0,12.2,18,18.6,18.2,18.7c0.6,0.2,1,0.7,1.1,1.3c0.1,0.6-0.1,1.2-0.6,1.6
		c-17.8,15.5-18.7,38.7-18.7,39c0,0.9-0.8,1.6-1.7,1.6h0c-0.9,0-1.7-0.8-1.7-1.7v-60.4c0-1,0.7-1.7,1.7-1.7
		C40.7,124.9,41.5,125.7,41.5,126.6z"/>
	<path id="XMLID_241_" d="M42,108.9c0,0.9-0.8,1.6-1.7,1.6c0,0,0,0-0.1,0c-0.9,0-1.6-0.8-1.6-1.7V45.5c0-0.9,0.7-1.7,1.6-1.7
		c0.9,0,1.7,0.6,1.8,1.5c0,0.3,2.4,26.5,19.3,42c0.4,0.4,0.6,1.1,0.5,1.6c-0.1,0.6-0.6,1.1-1.2,1.3C60.5,90.3,42.8,95.9,42,108.9z"
		/>
	<path id="XMLID_240_" d="M338.3,117.2c0,1-0.8,1.7-1.7,1.7h-62.1c-0.7,2.6-3.1,4.5-6,4.5c-3.5,0-6.3-2.8-6.3-6.2
		c0-3.4,2.8-6.2,6.3-6.2c2.8,0,5.2,1.9,6,4.5h62.1C337.5,115.5,338.3,116.3,338.3,117.2z"/>
</g>
</svg>
